<?xml version="1.0" standalone="no"?><!DOCTYPE svg PUBLIC "-//W3C//DTD SVG 1.1//EN" "http://www.w3.org/Graphics/SVG/1.1/DTD/svg11.dtd"><svg class="icon" width="200px" height="200.00px" viewBox="0 0 1024 1024" version="1.1" xmlns="http://www.w3.org/2000/svg"><path d="M511.867482 745.757928c6.424316 0 12.258185-2.486634 16.638959-6.523577l0.14224 0.107447 424.143023-424.13893c0.465604-0.426719 0.913812-0.873903 1.340531-1.341554l0.272199-0.272199-0.023536 0c3.28379-3.718695 5.291516-8.590656 5.291516-13.9405 0-11.651364-9.444093-21.094434-21.094434-21.094434-6.823406 0-12.871145 3.25309-16.726963 8.277524l-0.146333-0.190335-392.724453 392.724453c-0.12382 0.110517-15.426341 13.908778-33.534767 0.292666L101.868597 286.083667l-0.021489 0.031722c-3.867074-4.797259-9.782807-7.872295-16.423041-7.872295-11.651364 0-21.095457 9.444093-21.095457 21.094434 0 6.440689 2.89391 12.195763 7.442506 16.063861-0.071631-0.001023-0.151449 0.005117-0.224104 0.004093L492.737796 736.599338C497.243413 742.18045 504.133334 745.757928 511.867482 745.757928z" fill="#ffffff" /></svg>